<mxfile host="app.diagrams.net" modified="2020-09-12T12:37:08.982Z" agent="5.0 (Windows NT 10.0; Win64; x64) AppleWebKit/537.36 (KHTML, like Gecko) Chrome/85.0.4183.102 Safari/537.36" etag="lues7kGZR056-PO9HaMi" version="13.6.10" type="github">
  <diagram id="h6qkirXG36gG3qvryJz-" name="Page-1">
    <mxGraphModel dx="1145" dy="748" grid="1" gridSize="10" guides="1" tooltips="1" connect="1" arrows="1" fold="1" page="1" pageScale="1" pageWidth="827" pageHeight="1169" math="0" shadow="0">
      <root>
        <mxCell id="0" />
        <mxCell id="1" parent="0" />
        <mxCell id="5DA0Ugsqq1CFlCVFxzO3-1" value="JVM内存模型" style="rounded=0;whiteSpace=wrap;html=1;fillColor=none;fontStyle=1;fontSize=16;verticalAlign=top;align=left;" vertex="1" parent="1">
          <mxGeometry x="70" y="30" width="1080" height="660" as="geometry" />
        </mxCell>
        <mxCell id="5DA0Ugsqq1CFlCVFxzO3-2" value="栈Stack" style="rounded=1;whiteSpace=wrap;html=1;fontSize=14;verticalAlign=top;align=center;fontStyle=1;strokeWidth=3;strokeColor=#66CC00;" vertex="1" parent="1">
          <mxGeometry x="120" y="90" width="270" height="530" as="geometry" />
        </mxCell>
        <mxCell id="5DA0Ugsqq1CFlCVFxzO3-3" value="存放：基本数据类型，&lt;br&gt;对象的引用（地址）" style="text;html=1;strokeColor=none;fillColor=none;align=center;verticalAlign=middle;whiteSpace=wrap;rounded=0;fontSize=14;fontColor=#66CC00;" vertex="1" parent="1">
          <mxGeometry x="170" y="150" width="170" height="50" as="geometry" />
        </mxCell>
        <mxCell id="5DA0Ugsqq1CFlCVFxzO3-4" value="堆Heap" style="rounded=1;whiteSpace=wrap;html=1;fontSize=14;verticalAlign=top;align=center;fontStyle=1;strokeWidth=3;strokeColor=#FF8000;" vertex="1" parent="1">
          <mxGeometry x="450" y="110" width="650" height="370" as="geometry" />
        </mxCell>
        <mxCell id="5DA0Ugsqq1CFlCVFxzO3-5" value="方法区Method" style="rounded=1;whiteSpace=wrap;html=1;fontSize=14;verticalAlign=top;align=center;fontStyle=1;strokeWidth=3;strokeColor=#3399FF;" vertex="1" parent="1">
          <mxGeometry x="450" y="500" width="650" height="120" as="geometry" />
        </mxCell>
        <mxCell id="5DA0Ugsqq1CFlCVFxzO3-6" value="存放：所有对象包括自己 new&amp;nbsp;的对象和String对象" style="text;html=1;strokeColor=none;fillColor=none;align=center;verticalAlign=middle;whiteSpace=wrap;rounded=0;fontSize=14;fontColor=#FF8000;" vertex="1" parent="1">
          <mxGeometry x="590" y="140" width="391" height="30" as="geometry" />
        </mxCell>
        <mxCell id="5DA0Ugsqq1CFlCVFxzO3-7" value="存放：所有Class和Static变量" style="text;html=1;strokeColor=none;fillColor=none;align=center;verticalAlign=middle;whiteSpace=wrap;rounded=0;fontSize=14;fontColor=#3399FF;" vertex="1" parent="1">
          <mxGeometry x="600" y="525" width="391" height="30" as="geometry" />
        </mxCell>
        <mxCell id="5DA0Ugsqq1CFlCVFxzO3-8" value="" style="endArrow=classic;html=1;fontSize=14;fontColor=#3399FF;exitX=1;exitY=0.5;exitDx=0;exitDy=0;entryX=0.01;entryY=0.095;entryDx=0;entryDy=0;entryPerimeter=0;" edge="1" parent="1" target="5DA0Ugsqq1CFlCVFxzO3-20">
          <mxGeometry width="50" height="50" relative="1" as="geometry">
            <mxPoint x="370" y="274.5" as="sourcePoint" />
            <mxPoint x="530" y="270" as="targetPoint" />
          </mxGeometry>
        </mxCell>
        <mxCell id="5DA0Ugsqq1CFlCVFxzO3-9" value="引用对象" style="edgeLabel;html=1;align=center;verticalAlign=middle;resizable=0;points=[];fontSize=14;fontColor=#FF3333;" vertex="1" connectable="0" parent="5DA0Ugsqq1CFlCVFxzO3-8">
          <mxGeometry x="-0.2002" relative="1" as="geometry">
            <mxPoint as="offset" />
          </mxGeometry>
        </mxCell>
        <mxCell id="5DA0Ugsqq1CFlCVFxzO3-19" value="" style="group;fillColor=#fff2cc;strokeColor=#d6b656;" vertex="1" connectable="0" parent="1">
          <mxGeometry x="520" y="253" width="200" height="200" as="geometry" />
        </mxCell>
        <mxCell id="5DA0Ugsqq1CFlCVFxzO3-20" value="AE93000" style="whiteSpace=wrap;html=1;aspect=fixed;verticalAlign=top;align=center;fillColor=#fff2cc;strokeColor=#d6b656;" vertex="1" parent="5DA0Ugsqq1CFlCVFxzO3-19">
          <mxGeometry width="200" height="200" as="geometry" />
        </mxCell>
        <mxCell id="5DA0Ugsqq1CFlCVFxzO3-21" value="Object" style="rounded=1;whiteSpace=wrap;html=1;align=center;verticalAlign=top;fillColor=#dae8fc;strokeColor=#6c8ebf;" vertex="1" parent="5DA0Ugsqq1CFlCVFxzO3-19">
          <mxGeometry x="30" y="30" width="140" height="40" as="geometry" />
        </mxCell>
        <mxCell id="5DA0Ugsqq1CFlCVFxzO3-22" value="Person&lt;br&gt;&lt;br&gt;String: name, int age" style="rounded=1;whiteSpace=wrap;html=1;align=center;verticalAlign=top;fillColor=#f8cecc;strokeColor=#b85450;" vertex="1" parent="5DA0Ugsqq1CFlCVFxzO3-19">
          <mxGeometry x="30" y="80" width="140" height="50" as="geometry" />
        </mxCell>
        <mxCell id="5DA0Ugsqq1CFlCVFxzO3-23" value="Student&lt;br&gt;&lt;br&gt;String: id" style="rounded=1;whiteSpace=wrap;html=1;align=center;verticalAlign=top;fillColor=#d5e8d4;strokeColor=#82b366;" vertex="1" parent="5DA0Ugsqq1CFlCVFxzO3-19">
          <mxGeometry x="30" y="140" width="140" height="50" as="geometry" />
        </mxCell>
        <mxCell id="5DA0Ugsqq1CFlCVFxzO3-24" value="在生成子类对象同时也生成了所有父类对象" style="text;html=1;strokeColor=none;fillColor=none;align=center;verticalAlign=middle;whiteSpace=wrap;rounded=0;fontColor=#FF3333;" vertex="1" parent="1">
          <mxGeometry x="720" y="210" width="130" height="20" as="geometry" />
        </mxCell>
        <mxCell id="5DA0Ugsqq1CFlCVFxzO3-25" value="" style="endArrow=classic;html=1;exitX=0.25;exitY=1;exitDx=0;exitDy=0;" edge="1" parent="1" source="5DA0Ugsqq1CFlCVFxzO3-24" target="5DA0Ugsqq1CFlCVFxzO3-20">
          <mxGeometry width="50" height="50" relative="1" as="geometry">
            <mxPoint x="750" y="400" as="sourcePoint" />
            <mxPoint x="800" y="350" as="targetPoint" />
          </mxGeometry>
        </mxCell>
        <mxCell id="5DA0Ugsqq1CFlCVFxzO3-10" value="" style="shape=table;html=1;whiteSpace=wrap;startSize=0;container=1;collapsible=0;childLayout=tableLayout;fillColor=none;fontSize=14;align=center;" vertex="1" parent="1">
          <mxGeometry x="140" y="210" width="230" height="86" as="geometry" />
        </mxCell>
        <mxCell id="5DA0Ugsqq1CFlCVFxzO3-11" value="" style="shape=partialRectangle;html=1;whiteSpace=wrap;collapsible=0;dropTarget=0;pointerEvents=0;fillColor=none;top=0;left=0;bottom=0;right=0;points=[[0,0.5],[1,0.5]];portConstraint=eastwest;" vertex="1" parent="5DA0Ugsqq1CFlCVFxzO3-10">
          <mxGeometry width="230" height="43" as="geometry" />
        </mxCell>
        <mxCell id="5DA0Ugsqq1CFlCVFxzO3-12" value="名称" style="shape=partialRectangle;html=1;whiteSpace=wrap;connectable=0;fillColor=none;top=0;left=0;bottom=0;right=0;overflow=hidden;" vertex="1" parent="5DA0Ugsqq1CFlCVFxzO3-11">
          <mxGeometry width="77" height="43" as="geometry" />
        </mxCell>
        <mxCell id="5DA0Ugsqq1CFlCVFxzO3-13" value="地址" style="shape=partialRectangle;html=1;whiteSpace=wrap;connectable=0;fillColor=none;top=0;left=0;bottom=0;right=0;overflow=hidden;" vertex="1" parent="5DA0Ugsqq1CFlCVFxzO3-11">
          <mxGeometry x="77" width="76" height="43" as="geometry" />
        </mxCell>
        <mxCell id="5DA0Ugsqq1CFlCVFxzO3-14" value="值" style="shape=partialRectangle;html=1;whiteSpace=wrap;connectable=0;fillColor=none;top=0;left=0;bottom=0;right=0;overflow=hidden;" vertex="1" parent="5DA0Ugsqq1CFlCVFxzO3-11">
          <mxGeometry x="153" width="77" height="43" as="geometry" />
        </mxCell>
        <mxCell id="5DA0Ugsqq1CFlCVFxzO3-15" value="" style="shape=partialRectangle;html=1;whiteSpace=wrap;collapsible=0;dropTarget=0;pointerEvents=0;fillColor=none;top=0;left=0;bottom=0;right=0;points=[[0,0.5],[1,0.5]];portConstraint=eastwest;" vertex="1" parent="5DA0Ugsqq1CFlCVFxzO3-10">
          <mxGeometry y="43" width="230" height="43" as="geometry" />
        </mxCell>
        <mxCell id="5DA0Ugsqq1CFlCVFxzO3-16" value="Student&amp;nbsp;s" style="shape=partialRectangle;html=1;whiteSpace=wrap;connectable=0;fillColor=none;top=0;left=0;bottom=0;right=0;overflow=hidden;" vertex="1" parent="5DA0Ugsqq1CFlCVFxzO3-15">
          <mxGeometry width="77" height="43" as="geometry" />
        </mxCell>
        <mxCell id="5DA0Ugsqq1CFlCVFxzO3-17" value="&lt;span&gt;AG85003&lt;/span&gt;" style="shape=partialRectangle;html=1;whiteSpace=wrap;connectable=0;fillColor=none;top=0;left=0;bottom=0;right=0;overflow=hidden;" vertex="1" parent="5DA0Ugsqq1CFlCVFxzO3-15">
          <mxGeometry x="77" width="76" height="43" as="geometry" />
        </mxCell>
        <mxCell id="5DA0Ugsqq1CFlCVFxzO3-18" value="&lt;span&gt;AE93000&lt;/span&gt;" style="shape=partialRectangle;html=1;whiteSpace=wrap;connectable=0;fillColor=none;top=0;left=0;bottom=0;right=0;overflow=hidden;" vertex="1" parent="5DA0Ugsqq1CFlCVFxzO3-15">
          <mxGeometry x="153" width="77" height="43" as="geometry" />
        </mxCell>
      </root>
    </mxGraphModel>
  </diagram>
</mxfile>
